#!OML:ASF E:\acrobat2\Project_11_07_03\Capture day 1\Session 1\Acrobat.ASF
:FULLY-SPECIFIED
:DEGREES
219
root 11.0072 18.0274 -30.2912 40.3408 -87.5185 -37.8186
lowerback -4.43882 0.0327556 2.91193
upperback -3.89173 -0.123601 0.274266
thorax -1.5177 -0.158099 -1.35287
lowerneck -0.8712 0.0162996 -0.898272
upperneck 2.66332 -0.0199791 1.90064
head 0.960262 -0.000179155 0.731694
rclavicle 4.01297e-015 -2.5345e-015
rhumerus -11.2006 -31.7611 -9.32926
rradius 19.3039
rwrist 16.856
rhand -11.7843 -46.888
rfingers 7.12502
rthumb 14.2649 -76.3781
lclavicle 4.01297e-015 -2.5345e-015
lhumerus 0.372183 4.23271 6.2312
lradius 20.6529
lwrist 8.92736
lhand -7.05178 -3.65995
lfingers 7.12502
lthumb 18.821 25.4495
rfemur 9.32233 13.2526 14.8091
rtibia -1.71975
rfoot -23.8251 -29.569
rtoes -2.17948
lfemur 9.21389 -9.67887 -4.6316
ltibia -2.24632
lfoot -30.0816 6.30247
ltoes 37.2344
220
root 11.0098 18.0273 -30.2987 42.2752 -87.4749 -39.6923
lowerback -4.46718 0.0567158 3.05921
upperback -3.89739 -0.0974508 0.341156
thorax -1.50714 -0.147732 -1.36589
lowerneck -0.714263 -0.0811926 -0.835416
upperneck 2.66524 -0.148578 1.75729
head 0.935371 -0.0663474 0.675037
rclavicle 1.83876e-015 5.11871e-015
rhumerus -11.2578 -31.7719 -9.20109
rradius 19.3493
rwrist 16.8263
rhand -11.8377 -46.9469
rfingers 7.12502
rthumb 14.2134 -76.4406
lclavicle 1.83876e-015 5.11871e-015
lhumerus 0.402376 3.67006 6.03528
lradius 20.7943
lwrist 9.48408
lhand -7.06692 -3.34737
lfingers 7.12502
lthumb 18.8065 25.7635
rfemur 9.20426 13.3464 14.9207
rtibia -1.63153
rfoot -23.9268 -29.4685
rtoes -1.47087
lfemur 9.14588 -9.58134 -4.44571
ltibia -2.26118
lfoot -29.9811 6.37363
ltoes 37.1534
221
root 11.0142 18.026 -30.3067 44.2321 -87.4117 -41.5727
lowerback -4.46816 0.0639561 3.23977
upperback -3.91823 -0.0937151 0.376992
thorax -1.52882 -0.150443 -1.43001
lowerneck -0.634532 -0.0715352 -0.700489
upperneck 2.61969 -0.136119 1.696
head 0.906908 -0.0600536 0.633316
rclavicle -2.17421e-015 2.88238e-015
rhumerus -11.326 -31.6709 -9.15988
rradius 19.4195
rwrist 16.7104
rhand -11.9539 -47.1945
rfingers 7.12502
rthumb 14.1014 -76.696
lclavicle -2.17421e-015 2.88238e-015
lhumerus 0.497926 3.56338 5.87248
lradius 20.7966
lwrist 9.5905
lhand -7.13096 -3.42561
lfingers 7.12502
lthumb 18.7449 25.6912
rfemur 9.11068 13.6186 15.0839
rtibia -1.57192
rfoot -24.4482 -29.2881
rtoes 0.215581
lfemur 9.03613 -9.32878 -4.1937
ltibia -2.24098
lfoot -29.6391 6.73462
ltoes 35.7057
222
root 11.019 18.0255 -30.3148 45.8603 -87.3338 -43.1428
lowerback -4.43546 0.0357579 3.4329
upperback -3.92097 -0.135676 0.444659
thorax -1.55295 -0.175518 -1.46974
lowerneck -0.776553 0.0161508 -0.766359
upperneck 2.70098 -0.0196488 1.7421
head 0.955027 -0.00102507 0.660392
rclavicle -7.51655e-015 1.02374e-014
rhumerus -11.2171 -31.7035 -9.18932
rradius 19.4573
rwrist 16.666
rhand -11.9472 -47.3787
rfingers 7.12502
rthumb 14.1079 -76.8798
lclavicle -7.51655e-015 1.02374e-014
lhumerus 0.539553 3.94386 5.80609
lradius 20.7143
lwrist 9.25797
lhand -7.26661 -3.92223
lfingers 7.12502
lthumb 18.6144 25.2072
rfemur 8.97886 13.4664 15.1773
rtibia -1.50807
rfoot -24.4519 -29.1941
rtoes -0.0691367
lfemur 8.9224 -9.06414 -3.9396
ltibia -2.18468
lfoot -29.3602 6.9662
ltoes 34.4337
223
root 11.0213 18.026 -30.3208 45.6228 -87.3581 -42.8541
lowerback -4.4251 -0.00393839 3.47214
upperback -3.91229 -0.189158 0.560862
thorax -1.55225 -0.201788 -1.37382
lowerneck -0.969967 0.0922645 -0.849805
upperneck 2.82685 0.0888753 1.54836
head 1.02526 0.0515286 0.616794
rclavicle 4.50993e-015 3.67752e-015
rhumerus -10.9304 -31.7859 -9.17011
rradius 19.4558
rwrist 16.6135
rhand -11.9753 -47.4315
rfingers 7.12502
rthumb 14.0808 -76.9345
lclavicle 4.50993e-015 3.67752e-015
lhumerus 0.477212 4.38659 5.84437
lradius 20.6767
lwrist 8.91441
lhand -7.39421 -4.20551
lfingers 7.12502
lthumb 18.4916 24.9356
rfemur 8.83073 13.1002 15.0535
rtibia -1.44763
rfoot -24.0586 -29.1351
rtoes -0.932341
lfemur 8.85117 -9.00631 -3.91857
ltibia -2.19521
lfoot -29.3594 6.87733
ltoes 34.5862
224
root 11.0223 18.0267 -30.328 43.7361 -87.4948 -40.9166
lowerback -4.4305 -0.0253773 3.35483
upperback -3.9033 -0.214344 0.663406
thorax -1.53977 -0.210351 -1.20358
lowerneck -0.937162 0.0297131 -0.962795
upperneck 2.74923 0.0134144 1.38925
head 0.996196 0.010807 0.585297
rclavicle -7.23079e-015 9.74045e-015
rhumerus -10.6768 -31.6011 -9.08701
rradius 19.4489
rwrist 16.3634
rhand -12.0499 -47.38
rfingers 7.12502
rthumb 14.0089 -76.8879
lclavicle -7.23079e-015 9.74045e-015
lhumerus 0.376677 4.6985 5.91215
lradius 20.6854
lwrist 8.71804
lhand -7.52568 -4.19127
lfingers 7.12502
lthumb 18.3652 24.9618
rfemur 8.7572 13.1878 14.8277
rtibia -1.42931
rfoot -24.3813 -28.8956
rtoes 0.609594
lfemur 8.79576 -8.89493 -4.05136
ltibia -2.19046
lfoot -29.2303 6.89288
ltoes 34.5603
225
root 11.0234 18.0264 -30.3357 44.1531 -87.5782 -41.2881
lowerback -4.42462 -0.010775 3.36648
upperback -3.89836 -0.195086 0.737303
thorax -1.53683 -0.200166 -1.13359
lowerneck -0.915459 0.144449 -0.743139
upperneck 2.53295 0.174678 1.03984
head 0.92226 0.0897855 0.442106
rclavicle 3.05631e-015 -6.16232e-015
rhumerus -10.6037 -31.3253 -8.97642
rradius 19.4583
rwrist 16.1223
rhand -12.0929 -47.3122
rfingers 7.12502
rthumb 13.9674 -76.823
lclavicle 3.05631e-015 -6.16232e-015
lhumerus 0.303287 4.6665 5.86162
lradius 20.7291
lwrist 8.82358
lhand -7.72171 -4.08455
lfingers 7.12502
lthumb 18.1766 25.0862
rfemur 8.65539 13.1243 14.7245
rtibia -1.40893
rfoot -24.3447 -28.7145
rtoes 0.687647
lfemur 8.78396 -8.81423 -4.0584
ltibia -2.22748
lfoot -29.1472 7.05488
ltoes 34.2359
226
root 11.0258 18.0273 -30.3429 46.7729 -87.5815 -43.8695
lowerback -4.39792 0.00835446 3.47695
upperback -3.89876 -0.171951 0.831685
thorax -1.5515 -0.190497 -1.09762
lowerneck -0.847173 0.276287 -0.716874
upperneck 2.27853 0.351232 1.09787
head 0.830209 0.178879 0.456163
rclavicle -4.29872e-015 7.95139e-015
rhumerus -10.5783 -31.254 -8.87225
rradius 19.4901
rwrist 16.071
rhand -12.0815 -47.3336
rfingers 7.12502
rthumb 13.9784 -76.8436
lclavicle -4.29872e-015 7.95139e-015
lhumerus 0.250109 4.4077 5.72289
lradius 20.7834
lwrist 9.12505
lhand -7.91421 -4.13573
lfingers 7.12502
lthumb 17.9914 25.0521
rfemur 8.40581 12.1214 14.6407
rtibia -1.28475
rfoot -22.5432 -28.7025
rtoes -4.56205
lfemur 8.77786 -8.71764 -3.90352
ltibia -2.30472
lfoot -29.1818 6.87665
ltoes 35.0145
